<svg class="bs-logo bs-logo--black" xmlns="http://www.w3.org/2000/svg" viewBox="0 0 252 183" fill="none">
    <path d="M57.41 155.9a21.09 21.09 0 01-17.35 5.93 21.502 21.502 0 01-15.83-10.27 22.068 22.068 0 010-23.06 21.542 21.542 0 0115.63-10.26 21.19 21.19 0 0117.24 5.6 10.461 10.461 0 0014.79-.46 10.461 10.461 0 00-.46-14.79 42.007 42.007 0 00-34.25-11.1 42.93 42.93 0 00.44 85.13c1.66.192 3.33.289 5 .29a41.996 41.996 0 0029.43-12 10.477 10.477 0 00-14.63-15M10.46 84.32l33-.09a28.1 28.1 0 100-56.19h-4.58a10.47 10.47 0 000 20.93h4.65a7.168 7.168 0 016.624 9.914 7.17 7.17 0 01-6.624 4.426H20.95v-40.8h27.72a10.47 10.47 0 000-20.93H10.46A10.47 10.47 0 000 12.05v61.8a10.46 10.46 0 0010.46 10.47zM113.51.94a10.464 10.464 0 104.36 20.47 21.5 21.5 0 0122.76 10 22.09 22.09 0 010 23.06A21.405 21.405 0 01122.3 64.9 21.407 21.407 0 01104 54.44a22.16 22.16 0 01-.83-21.63 10.47 10.47 0 00-18.57-9.66 42.89 42.89 0 0037.73 62.63 42.888 42.888 0 0036-65.56A42.251 42.251 0 00113.51.94M181.89 22.7h21.05v51.05a10.466 10.466 0 006.384 9.965 10.468 10.468 0 0014.546-9.965V12.24A10.468 10.468 0 00213.4 1.77h-31.51a10.47 10.47 0 000 20.93" fill="#b4b7c9"></path>
    <path class="bs-logo__hl" d="M131.91 105.48a10.46 10.46 0 00-19 0l-28.15 61.81A10.458 10.458 0 0090 181.15c1.361.615 2.837.935 4.33.94a10.464 10.464 0 009.53-6.14l2.82-6.21h11.25a8.5 8.5 0 000-17h-3.61l8.06-17.71L141 176a10.456 10.456 0 009.962 6.503 10.449 10.449 0 007.463-3.421A10.454 10.454 0 00160 167.29l-28.09-61.81z" fill="#b4b7c9"></path>
    <path d="M242.63 161v-51.4a10.472 10.472 0 00-10.44-10.47l-28.8-.06a10.47 10.47 0 00-10.47 10.32c-.06 4.82-.35 9.52-.85 14a10.47 10.47 0 0020.8 2.34c.213-1.873.39-3.773.53-5.7h8.33v40.85h-18c.92-2.08 1.84-4.35 2.73-6.83a10.47 10.47 0 00-19.69-7.05 66.126 66.126 0 01-6.71 13.88h-1.9a10.484 10.484 0 00-7.612 2.948 10.474 10.474 0 003.507 17.281c1.308.506 2.703.745 4.105.701H241.24a10.435 10.435 0 007.258-2.746A10.44 10.44 0 00242.63 161M241.43 22.46a10.508 10.508 0 0010.271-12.597A10.511 10.511 0 00230.89 12a10.51 10.51 0 006.51 9.716c1.278.527 2.648.797 4.03.794v-.05zm-2.43-13V8.23h3a2.768 2.768 0 012.71 2.2c.04.184.06.372.06.56a2.647 2.647 0 01-1.85 2.49 1.793 1.793 0 001.35.69h.5v1.31a2.895 2.895 0 00-.52 0 3.063 3.063 0 01-2.67-1.86h-1.29v1.86H239V9.46z" fill="#b4b7c9"></path>
    <path d="M241.88 12.41h.26a1.46 1.46 0 001.34-1.4 1.4 1.4 0 00-.09-.5 1.672 1.672 0 00-1.48-1h-1.67v2.9H241.88z" fill="#1D1D1B"></path>
</svg>