<svg xmlns="http://www.w3.org/2000/svg" width="100" height="72" viewBox="0 0 100 72" fill="none">
    <path d="M0.3125 22.6957V10.6826H2.92969C6.875 10.6826 9.53125 12.6783 9.53125 16.7087C9.53125 20.7391 6.83594 22.6957 2.92969 22.6957H0.3125ZM0.3125 34.1217V50.6739H12.4219L0.3125 34.1217ZM27.8906 50.6739L13.6719 31.9304C19.375 29.6217 23.6328 24.9261 23.6328 16.3174C23.6328 7.5913 19.2969 2.85652 13.4375 0.586956H52.2656V11.6609H36.7578V20.2696H52.2266V31.187H36.7578V39.7957H52.2266V50.713H27.8906V50.6739Z" fill="#b4b7c9"/>
    <path d="M2.42187 60.1435H5.97656V58.2652H0.351562V71.413H5.97656V69.5348H2.42187V65.7H5.23437V63.8217H2.42187V60.1435ZM14.2969 71.413H16.4062V58.2652H14.5703V66.1304L12.4609 58.2652H9.88281V71.413H11.7187V61.9043L14.2969 71.413ZM23.5937 65.9739H24.5312V68.4C24.5312 69.3391 24.1016 69.6913 23.4766 69.6913C22.8516 69.6913 22.4219 69.3391 22.4219 68.4V61.3174C22.4219 60.3783 22.8516 60.0261 23.4766 60.0261C24.1016 60.0261 24.5312 60.3783 24.5312 61.3174V62.7261H26.4844V61.4348C26.4844 59.3217 25.4297 58.1478 23.3984 58.1478C21.3672 58.1478 20.3125 59.3609 20.3125 61.4348V68.2826C20.3125 70.3956 21.3672 71.5696 23.3984 71.5696C25.4297 71.5696 26.4844 70.3565 26.4844 68.2826V64.0957H23.5937V65.9739ZM30.4297 71.413H32.5V58.2652H30.4297V71.413ZM41.0547 71.413H43.1641V58.2652H41.3281V66.1304L39.2187 58.2652H36.6406V71.413H38.5156V61.9043L41.0547 71.413ZM49.3359 60.1435H52.8906V58.2652H47.2656V71.413H52.8906V69.5348H49.3359V65.7H52.1484V63.8217H49.3359V60.1435ZM58.8672 60.1435H62.4219V58.2652H56.7969V71.413H62.4219V69.5348H58.8672V65.7H61.6797V63.8217H58.8672V60.1435ZM72.7344 71.413C72.5391 70.9435 72.5 70.4739 72.5 69.8087V67.7739C72.5 66.4043 72.1484 65.4261 71.1328 64.9565C72.0703 64.5261 72.5 63.6261 72.5 62.2956V61.2783C72.5 59.2435 71.5625 58.2652 69.4531 58.2652H66.3281V71.413H68.3984V66.0522H69.1016C70.0391 66.0522 70.4687 66.5217 70.4687 67.7348V69.8087C70.4687 70.8652 70.5469 71.1 70.6641 71.413H72.7344ZM69.375 60.1435C70.1172 60.1435 70.4297 60.5739 70.4297 61.513V62.8043C70.4297 63.8609 69.9609 64.213 69.1797 64.213H68.3594V60.1826H69.375V60.1435ZM76.4844 71.413H78.5547V58.2652H76.4844V71.413ZM87.1094 71.413H89.2187V58.2652H87.3828V66.1304L85.2734 58.2652H82.6953V71.413H84.5703V61.9043L87.1094 71.413ZM96.4062 65.9739H97.3437V68.4C97.3437 69.3391 96.9141 69.6913 96.2891 69.6913C95.625 69.6913 95.2344 69.3391 95.2344 68.4V61.3174C95.2344 60.3783 95.6641 60.0261 96.2891 60.0261C96.9531 60.0261 97.3437 60.3783 97.3437 61.3174V62.7261H99.2969V61.4348C99.2969 59.3217 98.2422 58.1478 96.2109 58.1478C94.1797 58.1478 93.125 59.3609 93.125 61.4348V68.2826C93.125 70.3956 94.1797 71.5696 96.2109 71.5696C98.2422 71.5696 99.2969 70.3565 99.2969 68.2826V64.0957H96.4062V65.9739Z" fill="#b4b7c9"/>
    <path d="M56.1719 0.665216H86.0156L99.8437 25.513L85.4297 50.713L56.1719 0.665216Z" fill="#b4b7c9"/>
    <path d="M85.3906 50.6739L70.7031 25.513L56.2109 50.6739H85.3906Z" fill="#b4b7c9"/>
    <path d="M85.3906 50.6739L70.7031 25.513L66.7969 32.2826C74.7656 40.3435 85.3906 50.6739 85.3906 50.6739Z" fill="#b4b7c9"/>
</svg>