<?xml version="1.0" encoding="UTF-8"?>
<svg id="Layer_1" data-name="Layer 1" xmlns="http://www.w3.org/2000/svg" xmlns:xlink="http://www.w3.org/1999/xlink" viewBox="0 0 125.32 148.4">
  <defs>
    <style>
      .cls-1 {
        fill: url(#New_Gradient_Swatch_1);
        stroke-width: 0px;
      }
    </style>
    <linearGradient id="New_Gradient_Swatch_1" data-name="New Gradient Swatch 1" x1="-.54" y1="74.2" x2="123.79" y2="74.2" gradientUnits="userSpaceOnUse">
      <stop offset="0" stop-color="#6366f1"/>
      <stop offset=".5" stop-color="#8b5cf6"/>
      <stop offset="1" stop-color="#d946ef"/>
    </linearGradient>
  </defs>
  <path class="cls-1" d="m37.96,1.9l3.15,15.96s3.21,11.76,4.63,15.57c.94,2.53,2.86,6.3,7.39,7.88s7.68,1.77,10.05.99,7.49-3.35,7.49-3.35l.33,2.1s15.37-7.82,15.89-8.67.46,6.24,1.44,6.9,8.21-5.25,9.92-5.85-.99,8.6-.99,8.6c0,0,8.93-.39,9.59-1.38s-3.02,7.68-5.12,9.33,12.15-.85,12.15-.85c0,0,.2,4.47-1.12,5.98s5.39-.99,5.58-2.1-2.89,8.67-6.96,9.33,10.44,1.05,11.62-.46-2.89,4.33-2.89,4.33c0,0,2.96,3.15,4.79,2.96s-3.02,2.69-5.78,3.42-4.4.59-4.4.59c0,0-.66,4.01.85,5.09s-11.03.3-12.35-.69,2.1,6.24,2.1,6.24c0,0-5.78.33-8.01-1.25-2.23-1.58-2.5.26-2.5.26l.85,2.36s-8.6-3.74-10.44-5.91c-1.84-2.17-4.86-5.06-8.54-5.39s-5.12-.07-5.12-.07c0,0,5.78,5.91,8.41,7.88s10.44,6.63,13,7.75,6.3,2.69,9.13,2.76,3.35,0,3.35,0c0,0-1.25,2.56-3.28,3.55s5.25,3.15,5.65,4.93-2.63,2.76-2.63,2.76c0,0,4.33,4.27,6.17,4.86s-3.22,3.02-3.22,3.02c0,0,1.71,4.93,3.02,6.11s-8.41.33-8.41.33c0,0,1.44,10.25,1.97,11.49s-6.24.99-8.73.59,2.76,5.19,2.82,7.82.46,8.34-.85,10.31-7.95-3.28-9.19-4.86-3.61-3.68-4.33-4.86-2.48,5.98-2.82,8.14-5.92-7.36-6.7-9.92-2.17,2.5-2.17,2.5l-2.76-1.58s.33,5.12-.66,6.63-4.73-4.27-4.73-4.27l-1.77,2.43s-2.82-6.44-2.56-8.73c.26-2.3-2.82,2.69-2.82,2.69,0,0-3.61-5.65-3.81-11.76-.2-6.11,1.12-11.56,1.12-11.56l-3.28,1.77s-.59-10.25-.2-13.27,1.51-15.83.85-17.86-5.65,7.36-5.78,14.65-.62,11.76-.62,11.76c0,0-.03,3.94.76,5.65s-4.99-3.87-4.99-3.87c0,0-.79,9.19-2.96,11.56s-3.87-6.83-3.87-6.83c0,0-2.76,7.49-4.53,9.79s-2.89,3.02-2.89,3.02c0,0-.99-2.17-.99-3.42s-.59-1.97-.59-1.97c0,0-3.02,4.66-6.04,5.78s-4.86,1.25-4.86,1.25c0,0-1.44-7.03-.39-10.18,1.05-3.15-3.74.07-3.74.07,0,0,.2-5.25,1.44-8.41s1.31-3.68,1.31-3.68c0,0-4.73,1.44-5.52,2.04s-1.25-3.48.85-6.7-1.84-2.1-1.84-2.1c0,0,1.71-6.96,5.39-9.92s-10.71,1.97-12.15-.26,9.39-9.85,9.39-9.85c0,0-2.3-2.36-5.78-2.63s8.21-8.08,8.21-8.08c0,0-3.02-1.77-5.12-2.5s7.68-5.39,11.36-6.3-3.02-1.97-3.02-1.97c0,0,9.33-2.76,15.96-2.1s9.19-6.37,8.87-11.82-2.23-15.76-3.94-19.64-5.12-14.51-5.32-17.4c-.2-2.89-1.38-5.06-.26-7.49s6.37-2.63,7.49,0Z"/>
</svg>